<svg width="151" height="21" viewBox="0 0 151 21" fill="none" xmlns="http://www.w3.org/2000/svg">
<path d="M5.346 16.264C4.21667 16.264 3.24867 16.0807 2.442 15.714C1.65 15.3473 0.997333 14.8707 0.484 14.284L1.98 12.238C2.40533 12.6487 2.87467 12.986 3.388 13.25C3.90133 13.514 4.45133 13.646 5.038 13.646C5.72733 13.646 6.27733 13.5067 6.688 13.228C7.09867 12.9347 7.304 12.524 7.304 11.996C7.304 11.5853 7.20133 11.2333 6.996 10.94C6.79067 10.632 6.41667 10.3973 5.874 10.236C5.33133 10.0747 4.554 9.994 3.542 9.994V7.706C4.80333 7.706 5.66867 7.53733 6.138 7.2C6.60733 6.848 6.842 6.39333 6.842 5.836C6.842 5.352 6.69533 4.978 6.402 4.714C6.10867 4.43533 5.68333 4.296 5.126 4.296C4.62733 4.296 4.17267 4.406 3.762 4.626C3.366 4.846 2.948 5.14667 2.508 5.528L0.88 3.548C1.52533 2.99067 2.20733 2.558 2.926 2.25C3.64467 1.92733 4.42933 1.766 5.28 1.766C6.71733 1.766 7.876 2.10333 8.756 2.778C9.65067 3.438 10.098 4.37667 10.098 5.594C10.098 6.31267 9.89267 6.92867 9.482 7.442C9.086 7.95533 8.514 8.37333 7.766 8.696V8.784C8.57267 9.01867 9.23267 9.422 9.746 9.994C10.274 10.5513 10.538 11.2847 10.538 12.194C10.538 13.0593 10.296 13.8 9.812 14.416C9.34267 15.0173 8.712 15.4793 7.92 15.802C7.14267 16.11 6.28467 16.264 5.346 16.264ZM17.431 16.264C15.935 16.264 14.725 15.6407 13.801 14.394C12.8917 13.1473 12.437 11.336 12.437 8.96C12.437 6.584 12.8917 4.79467 13.801 3.592C14.725 2.37467 15.935 1.766 17.431 1.766C18.927 1.766 20.1297 2.37467 21.039 3.592C21.963 4.79467 22.425 6.584 22.425 8.96C22.425 11.336 21.963 13.1473 21.039 14.394C20.1297 15.6407 18.927 16.264 17.431 16.264ZM17.431 13.756C17.7977 13.756 18.1277 13.624 18.421 13.36C18.7144 13.0813 18.9417 12.5973 19.103 11.908C19.279 11.2187 19.367 10.236 19.367 8.96C19.367 7.684 19.279 6.70867 19.103 6.034C18.9417 5.35933 18.7144 4.89733 18.421 4.648C18.1277 4.39867 17.7977 4.274 17.431 4.274C17.079 4.274 16.7564 4.39867 16.463 4.648C16.1697 4.89733 15.935 5.35933 15.759 6.034C15.583 6.70867 15.495 7.684 15.495 8.96C15.495 10.236 15.583 11.2187 15.759 11.908C15.935 12.5973 16.1697 13.0813 16.463 13.36C16.7564 13.624 17.079 13.756 17.431 13.756ZM29.0804 16V5.088H31.7204L31.9404 6.496H32.0284C32.4831 6.04133 32.9671 5.65267 33.4804 5.33C33.9937 4.99267 34.6097 4.824 35.3284 4.824C36.1057 4.824 36.7291 4.98533 37.1984 5.308C37.6824 5.616 38.0637 6.06333 38.3424 6.65C38.8264 6.15133 39.3397 5.726 39.8824 5.374C40.4251 5.00733 41.0557 4.824 41.7744 4.824C42.9477 4.824 43.8057 5.22 44.3484 6.012C44.9057 6.78933 45.1844 7.86 45.1844 9.224V16H41.9504V9.642C41.9504 8.85 41.8404 8.30733 41.6204 8.014C41.4151 7.72067 41.0777 7.574 40.6084 7.574C40.0657 7.574 39.4424 7.926 38.7384 8.63V16H35.5044V9.642C35.5044 8.85 35.3944 8.30733 35.1744 8.014C34.9691 7.72067 34.6317 7.574 34.1624 7.574C33.6197 7.574 33.0037 7.926 32.3144 8.63V16H29.0804ZM47.9437 16V5.088H51.1777V16H47.9437ZM49.5497 3.482C49.007 3.482 48.567 3.328 48.2297 3.02C47.8923 2.712 47.7237 2.30133 47.7237 1.788C47.7237 1.27467 47.8923 0.863999 48.2297 0.556C48.567 0.247999 49.007 0.0939989 49.5497 0.0939989C50.0923 0.0939989 50.5323 0.247999 50.8697 0.556C51.207 0.863999 51.3757 1.27467 51.3757 1.788C51.3757 2.30133 51.207 2.712 50.8697 3.02C50.5323 3.328 50.0923 3.482 49.5497 3.482ZM54.0238 16V5.088H56.6638L56.8838 6.474H56.9718C57.4411 6.034 57.9544 5.65267 58.5118 5.33C59.0838 4.99267 59.7364 4.824 60.4698 4.824C61.6578 4.824 62.5158 5.22 63.0438 6.012C63.5864 6.78933 63.8578 7.86 63.8578 9.224V16H60.6238V9.642C60.6238 8.85 60.5138 8.30733 60.2938 8.014C60.0884 7.72067 59.7511 7.574 59.2818 7.574C58.8711 7.574 58.5191 7.66933 58.2258 7.86C57.9324 8.036 57.6098 8.29267 57.2578 8.63V16H54.0238ZM71.2819 16V1.656H75.3299C76.7966 1.656 78.0652 1.90533 79.1359 2.404C80.2066 2.90267 81.0352 3.68 81.6219 4.736C82.2232 5.77733 82.5239 7.11933 82.5239 8.762C82.5239 10.4047 82.2306 11.7613 81.6439 12.832C81.0572 13.9027 80.2359 14.702 79.1799 15.23C78.1386 15.7433 76.9139 16 75.5059 16H71.2819ZM74.5159 13.382H75.1319C75.9532 13.382 76.6646 13.2353 77.2659 12.942C77.8819 12.6487 78.3586 12.1647 78.6959 11.49C79.0332 10.8153 79.2019 9.906 79.2019 8.762C79.2019 7.618 79.0332 6.72333 78.6959 6.078C78.3586 5.418 77.8819 4.956 77.2659 4.692C76.6646 4.41333 75.9532 4.274 75.1319 4.274H74.5159V13.382ZM89.8667 16.264C88.8254 16.264 87.8867 16.0367 87.0507 15.582C86.2147 15.1273 85.5547 14.4747 85.0707 13.624C84.5867 12.7733 84.3447 11.7467 84.3447 10.544C84.3447 9.356 84.5867 8.33667 85.0707 7.486C85.5694 6.63533 86.2147 5.98267 87.0067 5.528C87.7987 5.05867 88.6274 4.824 89.4927 4.824C90.5341 4.824 91.3921 5.05867 92.0667 5.528C92.7561 5.98267 93.2694 6.606 93.6067 7.398C93.9587 8.17533 94.1347 9.06267 94.1347 10.06C94.1347 10.3387 94.1201 10.6173 94.0907 10.896C94.0614 11.16 94.0321 11.358 94.0027 11.49H87.4687C87.6154 12.282 87.9454 12.8687 88.4587 13.25C88.9721 13.6167 89.5881 13.8 90.3067 13.8C91.0841 13.8 91.8687 13.558 92.6607 13.074L93.7387 15.032C93.1814 15.4133 92.5581 15.714 91.8687 15.934C91.1794 16.154 90.5121 16.264 89.8667 16.264ZM87.4467 9.356H91.3847C91.3847 8.75467 91.2381 8.26333 90.9447 7.882C90.6661 7.486 90.2041 7.288 89.5587 7.288C89.0601 7.288 88.6127 7.464 88.2167 7.816C87.8207 8.15333 87.5641 8.66667 87.4467 9.356ZM99.3395 16.264C98.2248 16.264 97.4475 15.934 97.0075 15.274C96.5821 14.5993 96.3695 13.712 96.3695 12.612V0.577999H99.6035V12.744C99.6035 13.0813 99.6621 13.316 99.7795 13.448C99.9115 13.58 100.043 13.646 100.175 13.646C100.249 13.646 100.307 13.646 100.351 13.646C100.41 13.6313 100.483 13.6167 100.571 13.602L100.967 16C100.791 16.0733 100.564 16.132 100.285 16.176C100.021 16.2347 99.7061 16.264 99.3395 16.264ZM102.664 16V5.088H105.898V16H102.664ZM104.27 3.482C103.728 3.482 103.288 3.328 102.95 3.02C102.613 2.712 102.444 2.30133 102.444 1.788C102.444 1.27467 102.613 0.863999 102.95 0.556C103.288 0.247999 103.728 0.0939989 104.27 0.0939989C104.813 0.0939989 105.253 0.247999 105.59 0.556C105.928 0.863999 106.096 1.27467 106.096 1.788C106.096 2.30133 105.928 2.712 105.59 3.02C105.253 3.328 104.813 3.482 104.27 3.482ZM111.252 16L107.578 5.088H110.834L112.242 10.236C112.389 10.7787 112.528 11.336 112.66 11.908C112.807 12.4653 112.954 13.03 113.1 13.602H113.188C113.32 13.03 113.452 12.4653 113.584 11.908C113.731 11.336 113.878 10.7787 114.024 10.236L115.454 5.088H118.556L114.992 16H111.252ZM124.972 16.264C123.931 16.264 122.992 16.0367 122.156 15.582C121.32 15.1273 120.66 14.4747 120.176 13.624C119.692 12.7733 119.45 11.7467 119.45 10.544C119.45 9.356 119.692 8.33667 120.176 7.486C120.675 6.63533 121.32 5.98267 122.112 5.528C122.904 5.05867 123.733 4.824 124.598 4.824C125.64 4.824 126.498 5.05867 127.172 5.528C127.862 5.98267 128.375 6.606 128.712 7.398C129.064 8.17533 129.24 9.06267 129.24 10.06C129.24 10.3387 129.226 10.6173 129.196 10.896C129.167 11.16 129.138 11.358 129.108 11.49H122.574C122.721 12.282 123.051 12.8687 123.564 13.25C124.078 13.6167 124.694 13.8 125.412 13.8C126.19 13.8 126.974 13.558 127.766 13.074L128.844 15.032C128.287 15.4133 127.664 15.714 126.974 15.934C126.285 16.154 125.618 16.264 124.972 16.264ZM122.552 9.356H126.49C126.49 8.75467 126.344 8.26333 126.05 7.882C125.772 7.486 125.31 7.288 124.664 7.288C124.166 7.288 123.718 7.464 123.322 7.816C122.926 8.15333 122.67 8.66667 122.552 9.356ZM131.475 16V5.088H134.115L134.335 7.002H134.423C134.819 6.26867 135.296 5.726 135.853 5.374C136.41 5.00733 136.968 4.824 137.525 4.824C137.833 4.824 138.09 4.846 138.295 4.89C138.5 4.91933 138.676 4.97067 138.823 5.044L138.295 7.838C138.104 7.77933 137.914 7.73533 137.723 7.706C137.547 7.67667 137.342 7.662 137.107 7.662C136.696 7.662 136.264 7.816 135.809 8.124C135.369 8.41733 135.002 8.93067 134.709 9.664V16H131.475ZM141.601 20.268C141.278 20.268 140.992 20.246 140.743 20.202C140.508 20.158 140.281 20.1067 140.061 20.048L140.633 17.584C140.736 17.5987 140.853 17.6207 140.985 17.65C141.117 17.694 141.242 17.716 141.359 17.716C141.902 17.716 142.32 17.584 142.613 17.32C142.906 17.056 143.126 16.7113 143.273 16.286L143.427 15.714L139.225 5.088H142.481L144.043 9.774C144.204 10.2727 144.351 10.7787 144.483 11.292C144.615 11.8053 144.754 12.3333 144.901 12.876H144.989C145.106 12.3627 145.224 11.8493 145.341 11.336C145.473 10.808 145.605 10.2873 145.737 9.774L147.057 5.088H150.159L146.375 16.11C146.038 17.0193 145.664 17.782 145.253 18.398C144.842 19.0287 144.344 19.498 143.757 19.806C143.185 20.114 142.466 20.268 141.601 20.268Z" fill="#F17228"/>
</svg>
