<svg width="531" height="25" viewBox="0 0 531 25" fill="none" xmlns="http://www.w3.org/2000/svg">
<path d="M2.28834 18.5V6.764H5.60034C6.50034 6.764 7.31034 6.878 8.03034 7.106C8.75034 7.334 9.36834 7.688 9.88434 8.168C10.4003 8.636 10.7963 9.236 11.0723 9.968C11.3483 10.7 11.4863 11.57 11.4863 12.578C11.4863 13.586 11.3483 14.462 11.0723 15.206C10.7963 15.95 10.4063 16.568 9.90234 17.06C9.39834 17.54 8.79234 17.9 8.08434 18.14C7.38834 18.38 6.60834 18.5 5.74434 18.5H2.28834ZM4.93434 16.358H5.43834C5.94234 16.358 6.39834 16.292 6.80634 16.16C7.21434 16.028 7.56234 15.818 7.85034 15.53C8.13834 15.23 8.36034 14.84 8.51634 14.36C8.68434 13.88 8.76834 13.286 8.76834 12.578C8.76834 11.882 8.68434 11.3 8.51634 10.832C8.36034 10.352 8.13834 9.974 7.85034 9.698C7.56234 9.41 7.21434 9.206 6.80634 9.086C6.39834 8.966 5.94234 8.906 5.43834 8.906H4.93434V16.358ZM17.4941 18.716C16.8581 18.716 16.2641 18.614 15.7121 18.41C15.1601 18.194 14.6801 17.888 14.2721 17.492C13.8641 17.084 13.5461 16.592 13.3181 16.016C13.0901 15.44 12.9761 14.78 12.9761 14.036C12.9761 13.316 13.0961 12.668 13.3361 12.092C13.5761 11.504 13.8881 11.012 14.2721 10.616C14.6681 10.208 15.1181 9.896 15.6221 9.68C16.1261 9.464 16.6481 9.356 17.1881 9.356C17.8241 9.356 18.3761 9.464 18.8441 9.68C19.3241 9.896 19.7201 10.196 20.0321 10.58C20.3561 10.964 20.5961 11.42 20.7521 11.948C20.9081 12.464 20.9861 13.028 20.9861 13.64C20.9861 13.88 20.9741 14.108 20.9501 14.324C20.9261 14.54 20.9021 14.702 20.8781 14.81H15.5321C15.6521 15.458 15.9161 15.938 16.3241 16.25C16.7441 16.55 17.2541 16.7 17.8541 16.7C18.4901 16.7 19.1321 16.502 19.7801 16.106L20.6621 17.708C20.2061 18.02 19.6961 18.266 19.1321 18.446C18.5801 18.626 18.0341 18.716 17.4941 18.716ZM15.5141 13.064H18.7361C18.7361 12.56 18.6221 12.152 18.3941 11.84C18.1661 11.528 17.7821 11.372 17.2421 11.372C16.8221 11.372 16.4501 11.51 16.1261 11.786C15.8141 12.062 15.6101 12.488 15.5141 13.064ZM25.2445 18.716C24.7885 18.716 24.4045 18.644 24.0925 18.5C23.7805 18.356 23.5285 18.158 23.3365 17.906C23.1565 17.642 23.0245 17.33 22.9405 16.97C22.8565 16.598 22.8145 16.184 22.8145 15.728V5.882H25.4605V15.836C25.4605 16.112 25.5085 16.304 25.6045 16.412C25.7125 16.52 25.8205 16.574 25.9285 16.574C25.9885 16.574 26.0365 16.574 26.0725 16.574C26.1205 16.574 26.1805 16.562 26.2525 16.538L26.5765 18.5C26.4325 18.56 26.2465 18.608 26.0185 18.644C25.8025 18.692 25.5445 18.716 25.2445 18.716ZM27.9649 18.5V9.572H30.6109V18.5H27.9649ZM29.2789 8.258C28.8349 8.258 28.4689 8.132 28.1809 7.88C27.8929 7.616 27.7489 7.28 27.7489 6.872C27.7489 6.464 27.8929 6.134 28.1809 5.882C28.4689 5.63 28.8349 5.504 29.2789 5.504C29.7349 5.504 30.1009 5.63 30.3769 5.882C30.6649 6.134 30.8089 6.464 30.8089 6.872C30.8089 7.28 30.6649 7.616 30.3769 7.88C30.1009 8.132 29.7349 8.258 29.2789 8.258ZM34.9915 18.5L31.9855 9.572H34.6495L35.8015 13.784C35.9215 14.228 36.0355 14.684 36.1435 15.152C36.2635 15.608 36.3835 16.07 36.5035 16.538H36.5755C36.6835 16.07 36.7915 15.608 36.8995 15.152C37.0195 14.684 37.1395 14.228 37.2595 13.784L38.4295 9.572H40.9675L38.0515 18.5H34.9915ZM46.2168 18.716C45.5808 18.716 44.9868 18.614 44.4348 18.41C43.8828 18.194 43.4028 17.888 42.9948 17.492C42.5868 17.084 42.2688 16.592 42.0408 16.016C41.8128 15.44 41.6988 14.78 41.6988 14.036C41.6988 13.316 41.8188 12.668 42.0588 12.092C42.2988 11.504 42.6108 11.012 42.9948 10.616C43.3908 10.208 43.8408 9.896 44.3448 9.68C44.8488 9.464 45.3708 9.356 45.9108 9.356C46.5468 9.356 47.0988 9.464 47.5668 9.68C48.0468 9.896 48.4428 10.196 48.7548 10.58C49.0788 10.964 49.3188 11.42 49.4748 11.948C49.6308 12.464 49.7088 13.028 49.7088 13.64C49.7088 13.88 49.6968 14.108 49.6728 14.324C49.6488 14.54 49.6248 14.702 49.6008 14.81H44.2548C44.3748 15.458 44.6388 15.938 45.0468 16.25C45.4668 16.55 45.9768 16.7 46.5768 16.7C47.2128 16.7 47.8548 16.502 48.5028 16.106L49.3848 17.708C48.9288 18.02 48.4188 18.266 47.8548 18.446C47.3028 18.626 46.7568 18.716 46.2168 18.716ZM44.2368 13.064H47.4588C47.4588 12.56 47.3448 12.152 47.1168 11.84C46.8888 11.528 46.5048 11.372 45.9648 11.372C45.5448 11.372 45.1728 11.51 44.8488 11.786C44.5368 12.062 44.3328 12.488 44.2368 13.064ZM51.5372 18.5V9.572H53.6972L53.8772 11.138H53.9492C54.2732 10.526 54.6632 10.076 55.1192 9.788C55.5752 9.5 56.0312 9.356 56.4872 9.356C56.7392 9.356 56.9432 9.374 57.0992 9.41C57.2672 9.434 57.4172 9.476 57.5492 9.536L57.1172 11.822C56.9492 11.774 56.7932 11.738 56.6492 11.714C56.5052 11.69 56.3372 11.678 56.1452 11.678C55.8092 11.678 55.4552 11.798 55.0832 12.038C54.7232 12.278 54.4232 12.704 54.1832 13.316V18.5H51.5372ZM65.7506 18.716C65.1986 18.716 64.7246 18.632 64.3286 18.464C63.9446 18.296 63.6266 18.062 63.3746 17.762C63.1346 17.462 62.9546 17.102 62.8346 16.682C62.7266 16.25 62.6726 15.776 62.6726 15.26V11.642H61.4486V9.68L62.8166 9.572L63.1226 7.196H65.3186V9.572H67.4606V11.642H65.3186V15.224C65.3186 15.728 65.4206 16.094 65.6246 16.322C65.8406 16.538 66.1226 16.646 66.4706 16.646C66.6146 16.646 66.7586 16.628 66.9026 16.592C67.0586 16.556 67.1966 16.514 67.3166 16.466L67.7306 18.392C67.4906 18.464 67.2086 18.536 66.8846 18.608C66.5606 18.68 66.1826 18.716 65.7506 18.716ZM72.7208 18.716C72.1568 18.716 71.6108 18.614 71.0828 18.41C70.5548 18.194 70.0868 17.888 69.6788 17.492C69.2828 17.096 68.9648 16.61 68.7248 16.034C68.4848 15.446 68.3648 14.78 68.3648 14.036C68.3648 13.292 68.4848 12.632 68.7248 12.056C68.9648 11.468 69.2828 10.976 69.6788 10.58C70.0868 10.184 70.5548 9.884 71.0828 9.68C71.6108 9.464 72.1568 9.356 72.7208 9.356C73.2848 9.356 73.8248 9.464 74.3408 9.68C74.8688 9.884 75.3308 10.184 75.7268 10.58C76.1348 10.976 76.4588 11.468 76.6988 12.056C76.9388 12.632 77.0588 13.292 77.0588 14.036C77.0588 14.78 76.9388 15.446 76.6988 16.034C76.4588 16.61 76.1348 17.096 75.7268 17.492C75.3308 17.888 74.8688 18.194 74.3408 18.41C73.8248 18.614 73.2848 18.716 72.7208 18.716ZM72.7208 16.574C73.2608 16.574 73.6688 16.346 73.9448 15.89C74.2208 15.434 74.3588 14.816 74.3588 14.036C74.3588 13.256 74.2208 12.638 73.9448 12.182C73.6688 11.726 73.2608 11.498 72.7208 11.498C72.1688 11.498 71.7548 11.726 71.4788 12.182C71.2148 12.638 71.0828 13.256 71.0828 14.036C71.0828 14.816 71.2148 15.434 71.4788 15.89C71.7548 16.346 72.1688 16.574 72.7208 16.574ZM80.4012 12.884C79.9452 12.884 79.5612 12.728 79.2492 12.416C78.9492 12.092 78.7992 11.696 78.7992 11.228C78.7992 10.748 78.9492 10.352 79.2492 10.04C79.5612 9.716 79.9452 9.554 80.4012 9.554C80.8572 9.554 81.2352 9.716 81.5352 10.04C81.8472 10.352 82.0032 10.748 82.0032 11.228C82.0032 11.696 81.8472 12.092 81.5352 12.416C81.2352 12.728 80.8572 12.884 80.4012 12.884ZM80.4012 18.716C79.9452 18.716 79.5612 18.56 79.2492 18.248C78.9492 17.924 78.7992 17.528 78.7992 17.06C78.7992 16.58 78.9492 16.184 79.2492 15.872C79.5612 15.548 79.9452 15.386 80.4012 15.386C80.8572 15.386 81.2352 15.548 81.5352 15.872C81.8472 16.184 82.0032 16.58 82.0032 17.06C82.0032 17.528 81.8472 17.924 81.5352 18.248C81.2352 18.56 80.8572 18.716 80.4012 18.716Z" fill="#424242"/>
<path d="M101.797 20.8984C102.113 21.3906 102.852 21.3906 103.168 20.8984C108.301 13.5156 109.25 12.7422 109.25 10C109.25 6.27344 106.227 3.25 102.5 3.25C98.7383 3.25 95.75 6.27344 95.75 10C95.75 12.7422 96.6641 13.5156 101.797 20.8984ZM102.5 12.8125C100.918 12.8125 99.6875 11.582 99.6875 10C99.6875 8.45312 100.918 7.1875 102.5 7.1875C104.047 7.1875 105.312 8.45312 105.312 10C105.312 11.582 104.047 12.8125 102.5 12.8125Z" fill="#FFB30E"/>
<path d="M125.771 7.30176C124.359 7.30176 123.243 7.77344 122.423 8.7168C121.608 9.6543 121.201 10.9404 121.201 12.5752C121.201 14.2568 121.594 15.5576 122.379 16.4775C123.17 17.3916 124.295 17.8486 125.754 17.8486C126.65 17.8486 127.673 17.6875 128.821 17.3652V18.6748C127.931 19.0088 126.832 19.1758 125.525 19.1758C123.633 19.1758 122.171 18.6016 121.14 17.4531C120.114 16.3047 119.602 14.6729 119.602 12.5576C119.602 11.2334 119.848 10.0732 120.34 9.07715C120.838 8.08105 121.553 7.31348 122.484 6.77441C123.422 6.23535 124.523 5.96582 125.789 5.96582C127.137 5.96582 128.314 6.21191 129.322 6.7041L128.689 7.9873C127.717 7.53027 126.744 7.30176 125.771 7.30176ZM132.776 9.36719V15.6162C132.776 16.4014 132.955 16.9873 133.312 17.374C133.67 17.7607 134.229 17.9541 134.991 17.9541C135.999 17.9541 136.734 17.6787 137.197 17.1279C137.666 16.5771 137.9 15.6777 137.9 14.4297V9.36719H139.359V19H138.155L137.944 17.708H137.865C137.566 18.1826 137.15 18.5459 136.617 18.7979C136.09 19.0498 135.486 19.1758 134.807 19.1758C133.635 19.1758 132.756 18.8975 132.17 18.3408C131.59 17.7842 131.3 16.8936 131.3 15.6689V9.36719H132.776ZM146.856 9.19141C147.284 9.19141 147.668 9.22656 148.008 9.29688L147.806 10.6504C147.407 10.5625 147.056 10.5186 146.751 10.5186C145.972 10.5186 145.304 10.835 144.747 11.4678C144.196 12.1006 143.921 12.8887 143.921 13.832V19H142.462V9.36719H143.666L143.833 11.1514H143.903C144.261 10.5244 144.691 10.041 145.195 9.70117C145.699 9.36133 146.253 9.19141 146.856 9.19141ZM154.204 9.19141C154.632 9.19141 155.016 9.22656 155.355 9.29688L155.153 10.6504C154.755 10.5625 154.403 10.5186 154.099 10.5186C153.319 10.5186 152.651 10.835 152.095 11.4678C151.544 12.1006 151.269 12.8887 151.269 13.832V19H149.81V9.36719H151.014L151.181 11.1514H151.251C151.608 10.5244 152.039 10.041 152.543 9.70117C153.047 9.36133 153.601 9.19141 154.204 9.19141ZM161.227 19.1758C159.803 19.1758 158.678 18.7422 157.852 17.875C157.031 17.0078 156.621 15.8037 156.621 14.2627C156.621 12.71 157.002 11.4766 157.764 10.5625C158.531 9.64844 159.56 9.19141 160.849 9.19141C162.056 9.19141 163.011 9.58984 163.714 10.3867C164.417 11.1777 164.769 12.2236 164.769 13.5244V14.4473H158.133C158.162 15.5781 158.446 16.4365 158.985 17.0225C159.53 17.6084 160.295 17.9014 161.279 17.9014C162.316 17.9014 163.342 17.6846 164.355 17.251V18.5518C163.84 18.7744 163.351 18.9326 162.888 19.0264C162.431 19.126 161.877 19.1758 161.227 19.1758ZM160.831 10.4131C160.058 10.4131 159.439 10.665 158.977 11.1689C158.52 11.6729 158.25 12.3701 158.168 13.2607H163.204C163.204 12.3408 162.999 11.6377 162.589 11.1514C162.179 10.6592 161.593 10.4131 160.831 10.4131ZM173.856 19V12.7686C173.856 11.9834 173.678 11.3975 173.32 11.0107C172.963 10.624 172.403 10.4307 171.642 10.4307C170.634 10.4307 169.896 10.7031 169.427 11.248C168.958 11.793 168.724 12.6924 168.724 13.9463V19H167.265V9.36719H168.451L168.688 10.6855H168.759C169.058 10.2109 169.477 9.84473 170.016 9.58691C170.555 9.32324 171.155 9.19141 171.817 9.19141C172.978 9.19141 173.851 9.47266 174.437 10.0352C175.022 10.5918 175.315 11.4854 175.315 12.7158V19H173.856ZM181.433 17.9717C181.69 17.9717 181.939 17.9541 182.18 17.9189C182.42 17.8779 182.61 17.8369 182.751 17.7959V18.9121C182.593 18.9883 182.358 19.0498 182.048 19.0967C181.743 19.1494 181.468 19.1758 181.222 19.1758C179.358 19.1758 178.427 18.1943 178.427 16.2314V10.501H177.047V9.79785L178.427 9.19141L179.042 7.13477H179.886V9.36719H182.681V10.501H179.886V16.1699C179.886 16.75 180.023 17.1953 180.299 17.5059C180.574 17.8164 180.952 17.9717 181.433 17.9717ZM189.58 19V6.15039H191.074V17.6465H196.743V19H189.58ZM207.026 14.1748C207.026 15.7451 206.631 16.9727 205.84 17.8574C205.049 18.7363 203.956 19.1758 202.562 19.1758C201.7 19.1758 200.936 18.9736 200.268 18.5693C199.6 18.165 199.084 17.585 198.721 16.8291C198.357 16.0732 198.176 15.1885 198.176 14.1748C198.176 12.6045 198.568 11.3828 199.354 10.5098C200.139 9.63086 201.229 9.19141 202.623 9.19141C203.971 9.19141 205.04 9.63965 205.831 10.5361C206.628 11.4326 207.026 12.6455 207.026 14.1748ZM199.688 14.1748C199.688 15.4053 199.934 16.3428 200.426 16.9873C200.918 17.6318 201.642 17.9541 202.597 17.9541C203.552 17.9541 204.275 17.6348 204.768 16.9961C205.266 16.3516 205.515 15.4111 205.515 14.1748C205.515 12.9502 205.266 12.0215 204.768 11.3887C204.275 10.75 203.546 10.4307 202.579 10.4307C201.624 10.4307 200.903 10.7441 200.417 11.3711C199.931 11.998 199.688 12.9326 199.688 14.1748ZM213.442 19.1758C212.048 19.1758 210.967 18.748 210.199 17.8926C209.438 17.0312 209.057 15.8154 209.057 14.2451C209.057 12.6338 209.443 11.3887 210.217 10.5098C210.996 9.63086 212.104 9.19141 213.539 9.19141C214.002 9.19141 214.465 9.24121 214.928 9.34082C215.391 9.44043 215.754 9.55762 216.018 9.69238L215.569 10.9316C215.247 10.8027 214.896 10.6973 214.515 10.6152C214.134 10.5273 213.797 10.4834 213.504 10.4834C211.547 10.4834 210.568 11.7314 210.568 14.2275C210.568 15.4111 210.806 16.3193 211.28 16.9521C211.761 17.585 212.47 17.9014 213.407 17.9014C214.21 17.9014 215.033 17.7285 215.877 17.3828V18.6748C215.232 19.0088 214.421 19.1758 213.442 19.1758ZM224.095 19L223.805 17.6289H223.734C223.254 18.2324 222.773 18.6426 222.293 18.8594C221.818 19.0703 221.224 19.1758 220.509 19.1758C219.554 19.1758 218.804 18.9297 218.259 18.4375C217.72 17.9453 217.45 17.2451 217.45 16.3369C217.45 14.3916 219.006 13.3721 222.117 13.2783L223.752 13.2256V12.6279C223.752 11.8721 223.588 11.3154 223.26 10.958C222.938 10.5947 222.419 10.4131 221.704 10.4131C220.901 10.4131 219.993 10.6592 218.979 11.1514L218.531 10.0352C219.006 9.77734 219.524 9.5752 220.087 9.42871C220.655 9.28223 221.224 9.20898 221.792 9.20898C222.94 9.20898 223.79 9.46387 224.341 9.97363C224.897 10.4834 225.176 11.3008 225.176 12.4258V19H224.095ZM220.799 17.9717C221.707 17.9717 222.419 17.7227 222.935 17.2246C223.456 16.7266 223.717 16.0293 223.717 15.1328V14.2627L222.258 14.3242C221.098 14.3652 220.26 14.5469 219.744 14.8691C219.234 15.1855 218.979 15.6807 218.979 16.3545C218.979 16.8818 219.138 17.2832 219.454 17.5586C219.776 17.834 220.225 17.9717 220.799 17.9717ZM231.302 17.9717C231.56 17.9717 231.809 17.9541 232.049 17.9189C232.289 17.8779 232.479 17.8369 232.62 17.7959V18.9121C232.462 18.9883 232.228 19.0498 231.917 19.0967C231.612 19.1494 231.337 19.1758 231.091 19.1758C229.228 19.1758 228.296 18.1943 228.296 16.2314V10.501H226.916V9.79785L228.296 9.19141L228.911 7.13477H229.755V9.36719H232.55V10.501H229.755V16.1699C229.755 16.75 229.893 17.1953 230.168 17.5059C230.443 17.8164 230.821 17.9717 231.302 17.9717ZM236.013 19H234.554V9.36719H236.013V19ZM234.431 6.75684C234.431 6.42285 234.513 6.17969 234.677 6.02734C234.841 5.86914 235.046 5.79004 235.292 5.79004C235.526 5.79004 235.729 5.86914 235.898 6.02734C236.068 6.18555 236.153 6.42871 236.153 6.75684C236.153 7.08496 236.068 7.33105 235.898 7.49512C235.729 7.65332 235.526 7.73242 235.292 7.73242C235.046 7.73242 234.841 7.65332 234.677 7.49512C234.513 7.33105 234.431 7.08496 234.431 6.75684ZM247.421 14.1748C247.421 15.7451 247.025 16.9727 246.234 17.8574C245.443 18.7363 244.351 19.1758 242.956 19.1758C242.095 19.1758 241.33 18.9736 240.662 18.5693C239.994 18.165 239.479 17.585 239.115 16.8291C238.752 16.0732 238.57 15.1885 238.57 14.1748C238.57 12.6045 238.963 11.3828 239.748 10.5098C240.533 9.63086 241.623 9.19141 243.018 9.19141C244.365 9.19141 245.435 9.63965 246.226 10.5361C247.022 11.4326 247.421 12.6455 247.421 14.1748ZM240.082 14.1748C240.082 15.4053 240.328 16.3428 240.82 16.9873C241.312 17.6318 242.036 17.9541 242.991 17.9541C243.946 17.9541 244.67 17.6348 245.162 16.9961C245.66 16.3516 245.909 15.4111 245.909 14.1748C245.909 12.9502 245.66 12.0215 245.162 11.3887C244.67 10.75 243.94 10.4307 242.974 10.4307C242.019 10.4307 241.298 10.7441 240.812 11.3711C240.325 11.998 240.082 12.9326 240.082 14.1748ZM256.579 19V12.7686C256.579 11.9834 256.4 11.3975 256.043 11.0107C255.686 10.624 255.126 10.4307 254.364 10.4307C253.356 10.4307 252.618 10.7031 252.149 11.248C251.681 11.793 251.446 12.6924 251.446 13.9463V19H249.987V9.36719H251.174L251.411 10.6855H251.481C251.78 10.2109 252.199 9.84473 252.738 9.58691C253.277 9.32324 253.878 9.19141 254.54 9.19141C255.7 9.19141 256.573 9.47266 257.159 10.0352C257.745 10.5918 258.038 11.4854 258.038 12.7158V19H256.579Z" fill="#424242"/>
<path d="M273.312 19L272.38 15.9414H267.695L266.764 19H263.828L268.363 6.09766H271.694L276.247 19H273.312ZM271.729 13.6562L270.798 10.668C270.739 10.4688 270.66 10.2139 270.561 9.90332C270.467 9.58691 270.37 9.26758 270.271 8.94531C270.177 8.61719 270.101 8.33301 270.042 8.09277C269.983 8.33301 269.901 8.63184 269.796 8.98926C269.696 9.34082 269.6 9.6748 269.506 9.99121C269.412 10.3076 269.345 10.5332 269.304 10.668L268.381 13.6562H271.729ZM284.518 16.082C284.518 16.75 284.359 17.3154 284.043 17.7783C283.732 18.2354 283.267 18.584 282.646 18.8242C282.024 19.0586 281.251 19.1758 280.325 19.1758C279.64 19.1758 279.051 19.1318 278.559 19.0439C278.072 18.9561 277.58 18.8096 277.082 18.6045V16.3896C277.615 16.6299 278.187 16.8291 278.796 16.9873C279.411 17.1396 279.95 17.2158 280.413 17.2158C280.935 17.2158 281.307 17.1396 281.529 16.9873C281.758 16.8291 281.872 16.624 281.872 16.3721C281.872 16.208 281.825 16.0615 281.731 15.9326C281.644 15.7979 281.45 15.6484 281.151 15.4844C280.853 15.3145 280.384 15.0947 279.745 14.8252C279.13 14.5674 278.623 14.3066 278.225 14.043C277.832 13.7793 277.539 13.4688 277.346 13.1113C277.158 12.748 277.064 12.2881 277.064 11.7314C277.064 10.8232 277.416 10.1406 278.119 9.68359C278.828 9.2207 279.774 8.98926 280.958 8.98926C281.567 8.98926 282.147 9.05078 282.698 9.17383C283.255 9.29688 283.826 9.49316 284.412 9.7627L283.604 11.6963C283.117 11.4854 282.657 11.3125 282.224 11.1777C281.796 11.043 281.359 10.9756 280.914 10.9756C280.521 10.9756 280.226 11.0283 280.026 11.1338C279.827 11.2393 279.728 11.4004 279.728 11.6172C279.728 11.7754 279.777 11.916 279.877 12.0391C279.982 12.1621 280.182 12.2998 280.475 12.4521C280.773 12.5986 281.21 12.7891 281.784 13.0234C282.341 13.252 282.824 13.4922 283.234 13.7441C283.645 13.9902 283.961 14.2979 284.184 14.667C284.406 15.0303 284.518 15.502 284.518 16.082ZM289.29 5.32422V8.11035C289.29 8.59668 289.272 9.05957 289.237 9.49902C289.208 9.93848 289.185 10.249 289.167 10.4307H289.308C289.519 10.0908 289.768 9.81543 290.055 9.60449C290.348 9.39355 290.67 9.23828 291.021 9.13867C291.373 9.03906 291.751 8.98926 292.155 8.98926C292.864 8.98926 293.482 9.11523 294.01 9.36719C294.537 9.61328 294.947 10.0029 295.24 10.5361C295.533 11.0635 295.68 11.749 295.68 12.5928V19H292.999V13.2607C292.999 12.5576 292.87 12.0273 292.612 11.6699C292.354 11.3125 291.956 11.1338 291.417 11.1338C290.878 11.1338 290.453 11.2598 290.143 11.5117C289.832 11.7578 289.612 12.124 289.483 12.6104C289.354 13.0908 289.29 13.6797 289.29 14.377V19H286.609V5.32422H289.29ZM307.369 14.0693C307.369 14.8896 307.258 15.6162 307.035 16.249C306.818 16.8818 306.499 17.418 306.077 17.8574C305.661 18.291 305.157 18.6191 304.565 18.8418C303.979 19.0645 303.317 19.1758 302.579 19.1758C301.888 19.1758 301.252 19.0645 300.672 18.8418C300.098 18.6191 299.597 18.291 299.169 17.8574C298.747 17.418 298.419 16.8818 298.185 16.249C297.956 15.6162 297.842 14.8896 297.842 14.0693C297.842 12.9795 298.035 12.0566 298.422 11.3008C298.809 10.5449 299.359 9.9707 300.074 9.57812C300.789 9.18555 301.642 8.98926 302.632 8.98926C303.552 8.98926 304.366 9.18555 305.075 9.57812C305.79 9.9707 306.35 10.5449 306.754 11.3008C307.164 12.0566 307.369 12.9795 307.369 14.0693ZM300.575 14.0693C300.575 14.7139 300.646 15.2559 300.786 15.6953C300.927 16.1348 301.146 16.4658 301.445 16.6885C301.744 16.9111 302.134 17.0225 302.614 17.0225C303.089 17.0225 303.473 16.9111 303.766 16.6885C304.064 16.4658 304.281 16.1348 304.416 15.6953C304.557 15.2559 304.627 14.7139 304.627 14.0693C304.627 13.4189 304.557 12.8799 304.416 12.4521C304.281 12.0186 304.064 11.6934 303.766 11.4766C303.467 11.2598 303.077 11.1514 302.597 11.1514C301.888 11.1514 301.372 11.3945 301.05 11.8809C300.733 12.3672 300.575 13.0967 300.575 14.0693ZM312.265 5.32422V11.4414C312.265 11.8105 312.25 12.1797 312.221 12.5488C312.191 12.918 312.159 13.2871 312.124 13.6562H312.159C312.341 13.3984 312.525 13.1436 312.713 12.8916C312.906 12.6396 313.111 12.3965 313.328 12.1621L316.079 9.17383H319.103L315.2 13.4365L319.34 19H316.246L313.416 15.0186L312.265 15.9414V19H309.584V5.32422H312.265ZM337.032 19H333.569L327.979 9.2793H327.9C327.924 9.68359 327.944 10.0908 327.962 10.501C327.979 10.9111 327.997 11.3213 328.015 11.7314C328.032 12.1357 328.05 12.543 328.067 12.9531V19H325.633V6.15039H329.069L334.65 15.7744H334.712C334.7 15.376 334.686 14.9805 334.668 14.5879C334.65 14.1953 334.633 13.8027 334.615 13.4102C334.604 13.0176 334.592 12.625 334.58 12.2324V6.15039H337.032V19ZM344.09 8.97168C345.408 8.97168 346.419 9.25879 347.122 9.83301C347.825 10.4072 348.177 11.2803 348.177 12.4521V19H346.305L345.786 17.6641H345.716C345.435 18.0156 345.147 18.3027 344.854 18.5254C344.562 18.748 344.225 18.9121 343.844 19.0176C343.463 19.123 343 19.1758 342.455 19.1758C341.875 19.1758 341.354 19.0645 340.891 18.8418C340.434 18.6191 340.073 18.2793 339.81 17.8223C339.546 17.3594 339.414 16.7734 339.414 16.0645C339.414 15.0215 339.78 14.2539 340.513 13.7617C341.245 13.2637 342.344 12.9883 343.809 12.9355L345.514 12.8828V12.4521C345.514 11.9365 345.379 11.5586 345.109 11.3184C344.84 11.0781 344.465 10.958 343.984 10.958C343.51 10.958 343.044 11.0254 342.587 11.1602C342.13 11.2949 341.673 11.4648 341.216 11.6699L340.328 9.85938C340.85 9.58398 341.433 9.36719 342.077 9.20898C342.728 9.05078 343.398 8.97168 344.09 8.97168ZM345.514 14.4473L344.477 14.4824C343.609 14.5059 343.006 14.6611 342.666 14.9482C342.332 15.2354 342.165 15.6133 342.165 16.082C342.165 16.4922 342.285 16.7852 342.525 16.9609C342.766 17.1309 343.079 17.2158 343.466 17.2158C344.04 17.2158 344.523 17.0459 344.916 16.7061C345.314 16.3662 345.514 15.8828 345.514 15.2559V14.4473ZM353.819 23.3242C352.448 23.3242 351.399 23.084 350.673 22.6035C349.952 22.1289 349.592 21.4609 349.592 20.5996C349.592 20.0078 349.776 19.5127 350.146 19.1143C350.515 18.7158 351.057 18.4316 351.771 18.2617C351.496 18.1445 351.256 17.9541 351.051 17.6904C350.846 17.4209 350.743 17.1367 350.743 16.8379C350.743 16.4629 350.852 16.1523 351.068 15.9062C351.285 15.6543 351.599 15.4082 352.009 15.168C351.493 14.9453 351.083 14.5879 350.778 14.0957C350.479 13.6035 350.33 13.0234 350.33 12.3555C350.33 11.6406 350.485 11.0342 350.796 10.5361C351.112 10.0322 351.569 9.64844 352.167 9.38477C352.771 9.12109 353.503 8.98926 354.364 8.98926C354.546 8.98926 354.757 9.00098 354.997 9.02441C355.237 9.04785 355.457 9.07422 355.656 9.10352C355.861 9.13281 355.999 9.15625 356.069 9.17383H359.497V10.5361L357.959 10.9316C358.1 11.1484 358.205 11.3799 358.275 11.626C358.346 11.8721 358.381 12.1328 358.381 12.4082C358.381 13.4629 358.012 14.2861 357.273 14.8779C356.541 15.4639 355.521 15.7568 354.215 15.7568C353.904 15.7393 353.611 15.7158 353.336 15.6865C353.201 15.792 353.099 15.9033 353.028 16.0205C352.958 16.1377 352.923 16.2607 352.923 16.3896C352.923 16.5186 352.976 16.627 353.081 16.7148C353.192 16.7969 353.356 16.8613 353.573 16.9082C353.796 16.9492 354.071 16.9697 354.399 16.9697H356.069C357.147 16.9697 357.968 17.2012 358.53 17.6641C359.099 18.127 359.383 18.8066 359.383 19.7031C359.383 20.8516 358.902 21.7422 357.941 22.375C356.986 23.0078 355.612 23.3242 353.819 23.3242ZM353.934 21.5752C354.572 21.5752 355.12 21.5137 355.577 21.3906C356.04 21.2734 356.395 21.1035 356.641 20.8809C356.887 20.6641 357.01 20.4033 357.01 20.0986C357.01 19.8525 356.937 19.6562 356.79 19.5098C356.649 19.3691 356.433 19.2695 356.14 19.2109C355.853 19.1523 355.483 19.123 355.032 19.123H353.644C353.315 19.123 353.02 19.1758 352.756 19.2812C352.498 19.3867 352.293 19.5332 352.141 19.7207C351.988 19.9141 351.912 20.1367 351.912 20.3887C351.912 20.7578 352.088 21.0479 352.439 21.2588C352.797 21.4697 353.295 21.5752 353.934 21.5752ZM354.364 14.1221C354.868 14.1221 355.237 13.9668 355.472 13.6562C355.706 13.3457 355.823 12.9238 355.823 12.3906C355.823 11.7988 355.7 11.3564 355.454 11.0635C355.214 10.7646 354.851 10.6152 354.364 10.6152C353.872 10.6152 353.503 10.7646 353.257 11.0635C353.011 11.3564 352.888 11.7988 352.888 12.3906C352.888 12.9238 353.008 13.3457 353.248 13.6562C353.494 13.9668 353.866 14.1221 354.364 14.1221ZM365.148 8.97168C366.467 8.97168 367.478 9.25879 368.181 9.83301C368.884 10.4072 369.235 11.2803 369.235 12.4521V19H367.363L366.845 17.6641H366.774C366.493 18.0156 366.206 18.3027 365.913 18.5254C365.62 18.748 365.283 18.9121 364.902 19.0176C364.521 19.123 364.059 19.1758 363.514 19.1758C362.934 19.1758 362.412 19.0645 361.949 18.8418C361.492 18.6191 361.132 18.2793 360.868 17.8223C360.604 17.3594 360.473 16.7734 360.473 16.0645C360.473 15.0215 360.839 14.2539 361.571 13.7617C362.304 13.2637 363.402 12.9883 364.867 12.9355L366.572 12.8828V12.4521C366.572 11.9365 366.438 11.5586 366.168 11.3184C365.898 11.0781 365.523 10.958 365.043 10.958C364.568 10.958 364.103 11.0254 363.646 11.1602C363.188 11.2949 362.731 11.4648 362.274 11.6699L361.387 9.85938C361.908 9.58398 362.491 9.36719 363.136 9.20898C363.786 9.05078 364.457 8.97168 365.148 8.97168ZM366.572 14.4473L365.535 14.4824C364.668 14.5059 364.064 14.6611 363.725 14.9482C363.391 15.2354 363.224 15.6133 363.224 16.082C363.224 16.4922 363.344 16.7852 363.584 16.9609C363.824 17.1309 364.138 17.2158 364.524 17.2158C365.099 17.2158 365.582 17.0459 365.975 16.7061C366.373 16.3662 366.572 15.8828 366.572 15.2559V14.4473ZM377.488 8.98926C377.623 8.98926 377.778 8.99805 377.954 9.01562C378.136 9.02734 378.282 9.04492 378.394 9.06836L378.191 11.582C378.104 11.5527 377.978 11.5322 377.813 11.5205C377.655 11.5029 377.518 11.4941 377.4 11.4941C377.055 11.4941 376.718 11.5381 376.39 11.626C376.067 11.7139 375.777 11.8574 375.52 12.0566C375.262 12.25 375.057 12.5078 374.904 12.8301C374.758 13.1465 374.685 13.5361 374.685 13.999V19H372.004V9.17383H374.034L374.43 10.8262H374.562C374.755 10.4922 374.995 10.1875 375.282 9.91211C375.575 9.63086 375.906 9.4082 376.275 9.24414C376.65 9.07422 377.055 8.98926 377.488 8.98926ZM382.674 16.9082L382.806 17.1104C382.7 17.5322 382.562 17.9863 382.393 18.4727C382.229 18.959 382.047 19.4453 381.848 19.9316C381.654 20.418 381.458 20.8809 381.259 21.3203H379.325C379.442 20.8457 379.557 20.3477 379.668 19.8262C379.779 19.3047 379.882 18.792 379.976 18.2881C380.075 17.7842 380.154 17.3242 380.213 16.9082H382.674ZM395.655 8.2334C395.134 8.2334 394.671 8.33594 394.267 8.54102C393.868 8.74023 393.531 9.03027 393.256 9.41113C392.986 9.79199 392.781 10.252 392.641 10.791C392.5 11.3301 392.43 11.9365 392.43 12.6104C392.43 13.5186 392.541 14.2949 392.764 14.9395C392.992 15.5781 393.344 16.0674 393.818 16.4072C394.293 16.7412 394.905 16.9082 395.655 16.9082C396.177 16.9082 396.698 16.8496 397.22 16.7324C397.747 16.6152 398.318 16.4482 398.934 16.2314V18.5166C398.365 18.751 397.806 18.918 397.255 19.0176C396.704 19.123 396.086 19.1758 395.4 19.1758C394.076 19.1758 392.986 18.9033 392.131 18.3584C391.281 17.8076 390.651 17.04 390.241 16.0557C389.831 15.0654 389.626 13.9111 389.626 12.5928C389.626 11.6201 389.758 10.7295 390.021 9.9209C390.285 9.1123 390.672 8.41211 391.182 7.82031C391.691 7.22852 392.321 6.77148 393.071 6.44922C393.821 6.12695 394.683 5.96582 395.655 5.96582C396.294 5.96582 396.933 6.04785 397.571 6.21191C398.216 6.37012 398.831 6.58984 399.417 6.87109L398.538 9.08594C398.058 8.85742 397.574 8.6582 397.088 8.48828C396.602 8.31836 396.124 8.2334 395.655 8.2334ZM404.146 5.32422V8.11035C404.146 8.59668 404.128 9.05957 404.093 9.49902C404.063 9.93848 404.04 10.249 404.022 10.4307H404.163C404.374 10.0908 404.623 9.81543 404.91 9.60449C405.203 9.39355 405.525 9.23828 405.877 9.13867C406.229 9.03906 406.606 8.98926 407.011 8.98926C407.72 8.98926 408.338 9.11523 408.865 9.36719C409.393 9.61328 409.803 10.0029 410.096 10.5361C410.389 11.0635 410.535 11.749 410.535 12.5928V19H407.854V13.2607C407.854 12.5576 407.726 12.0273 407.468 11.6699C407.21 11.3125 406.812 11.1338 406.272 11.1338C405.733 11.1338 405.309 11.2598 404.998 11.5117C404.688 11.7578 404.468 12.124 404.339 12.6104C404.21 13.0908 404.146 13.6797 404.146 14.377V19H401.465V5.32422H404.146ZM417.347 8.98926C418.255 8.98926 419.037 9.16504 419.693 9.5166C420.35 9.8623 420.856 10.3662 421.214 11.0283C421.571 11.6904 421.75 12.499 421.75 13.4541V14.7549H415.413C415.442 15.5107 415.668 16.1055 416.09 16.5391C416.518 16.9668 417.109 17.1807 417.865 17.1807C418.492 17.1807 419.066 17.1162 419.588 16.9873C420.109 16.8584 420.646 16.665 421.196 16.4072V18.4814C420.71 18.7217 420.2 18.8975 419.667 19.0088C419.14 19.1201 418.498 19.1758 417.742 19.1758C416.758 19.1758 415.885 18.9941 415.123 18.6309C414.367 18.2676 413.772 17.7139 413.339 16.9697C412.911 16.2256 412.697 15.2881 412.697 14.1572C412.697 13.0088 412.891 12.0537 413.277 11.292C413.67 10.5244 414.215 9.9502 414.912 9.56934C415.609 9.18262 416.421 8.98926 417.347 8.98926ZM417.364 10.8965C416.843 10.8965 416.409 11.0635 416.063 11.3975C415.724 11.7314 415.527 12.2559 415.475 12.9707H419.236C419.23 12.5723 419.157 12.2178 419.017 11.9072C418.882 11.5967 418.677 11.3506 418.401 11.1689C418.132 10.9873 417.786 10.8965 417.364 10.8965ZM429.511 8.98926C430.56 8.98926 431.403 9.27637 432.042 9.85059C432.681 10.4189 433 11.333 433 12.5928V19H430.319V13.2607C430.319 12.5576 430.19 12.0273 429.933 11.6699C429.681 11.3125 429.282 11.1338 428.737 11.1338C427.917 11.1338 427.357 11.4121 427.059 11.9688C426.76 12.5254 426.61 13.3281 426.61 14.377V19H423.93V9.17383H425.978L426.338 10.4307H426.487C426.698 10.0908 426.959 9.81543 427.27 9.60449C427.586 9.39355 427.935 9.23828 428.315 9.13867C428.702 9.03906 429.101 8.98926 429.511 8.98926ZM441.341 8.98926C442.39 8.98926 443.233 9.27637 443.872 9.85059C444.511 10.4189 444.83 11.333 444.83 12.5928V19H442.149V13.2607C442.149 12.5576 442.021 12.0273 441.763 11.6699C441.511 11.3125 441.112 11.1338 440.567 11.1338C439.747 11.1338 439.188 11.4121 438.889 11.9688C438.59 12.5254 438.44 13.3281 438.44 14.377V19H435.76V9.17383H437.808L438.168 10.4307H438.317C438.528 10.0908 438.789 9.81543 439.1 9.60449C439.416 9.39355 439.765 9.23828 440.146 9.13867C440.532 9.03906 440.931 8.98926 441.341 8.98926ZM451.615 8.97168C452.934 8.97168 453.944 9.25879 454.647 9.83301C455.351 10.4072 455.702 11.2803 455.702 12.4521V19H453.83L453.312 17.6641H453.241C452.96 18.0156 452.673 18.3027 452.38 18.5254C452.087 18.748 451.75 18.9121 451.369 19.0176C450.988 19.123 450.525 19.1758 449.98 19.1758C449.4 19.1758 448.879 19.0645 448.416 18.8418C447.959 18.6191 447.599 18.2793 447.335 17.8223C447.071 17.3594 446.939 16.7734 446.939 16.0645C446.939 15.0215 447.306 14.2539 448.038 13.7617C448.771 13.2637 449.869 12.9883 451.334 12.9355L453.039 12.8828V12.4521C453.039 11.9365 452.904 11.5586 452.635 11.3184C452.365 11.0781 451.99 10.958 451.51 10.958C451.035 10.958 450.569 11.0254 450.112 11.1602C449.655 11.2949 449.198 11.4648 448.741 11.6699L447.854 9.85938C448.375 9.58398 448.958 9.36719 449.603 9.20898C450.253 9.05078 450.924 8.97168 451.615 8.97168ZM453.039 14.4473L452.002 14.4824C451.135 14.5059 450.531 14.6611 450.191 14.9482C449.857 15.2354 449.69 15.6133 449.69 16.082C449.69 16.4922 449.811 16.7852 450.051 16.9609C450.291 17.1309 450.604 17.2158 450.991 17.2158C451.565 17.2158 452.049 17.0459 452.441 16.7061C452.84 16.3662 453.039 15.8828 453.039 15.2559V14.4473ZM461.151 9.17383V19H458.471V9.17383H461.151ZM459.815 5.32422C460.214 5.32422 460.557 5.41797 460.844 5.60547C461.131 5.78711 461.274 6.12988 461.274 6.63379C461.274 7.13184 461.131 7.47754 460.844 7.6709C460.557 7.8584 460.214 7.95215 459.815 7.95215C459.411 7.95215 459.065 7.8584 458.778 7.6709C458.497 7.47754 458.356 7.13184 458.356 6.63379C458.356 6.12988 458.497 5.78711 458.778 5.60547C459.065 5.41797 459.411 5.32422 459.815 5.32422ZM463.103 15.2734V13.0762H467.822V15.2734H463.103ZM469 13.542C469 12.8037 469.053 12.0742 469.158 11.3535C469.27 10.627 469.46 9.94434 469.729 9.30566C469.999 8.66113 470.377 8.09277 470.863 7.60059C471.35 7.10254 471.968 6.71289 472.718 6.43164C473.468 6.14453 474.376 6.00098 475.442 6.00098C475.694 6.00098 475.987 6.0127 476.321 6.03613C476.661 6.05371 476.942 6.08594 477.165 6.13281V8.30371C476.931 8.25098 476.679 8.20996 476.409 8.18066C476.146 8.14551 475.882 8.12793 475.618 8.12793C474.552 8.12793 473.726 8.29785 473.14 8.6377C472.56 8.97754 472.149 9.44922 471.909 10.0527C471.675 10.6504 471.537 11.3477 471.496 12.1445H471.61C471.774 11.8574 471.979 11.6025 472.226 11.3799C472.478 11.1572 472.782 10.9814 473.14 10.8525C473.497 10.7178 473.916 10.6504 474.396 10.6504C475.146 10.6504 475.797 10.8115 476.348 11.1338C476.898 11.4502 477.323 11.9102 477.622 12.5137C477.921 13.1172 478.07 13.8525 478.07 14.7197C478.07 15.6455 477.892 16.4424 477.534 17.1104C477.177 17.7783 476.67 18.291 476.014 18.6484C475.363 19 474.59 19.1758 473.693 19.1758C473.037 19.1758 472.425 19.0645 471.856 18.8418C471.288 18.6133 470.79 18.2676 470.362 17.8047C469.935 17.3418 469.601 16.7588 469.36 16.0557C469.12 15.3467 469 14.5088 469 13.542ZM473.641 17.0049C474.174 17.0049 474.607 16.8232 474.941 16.46C475.275 16.0967 475.442 15.5283 475.442 14.7549C475.442 14.1279 475.296 13.6357 475.003 13.2783C474.716 12.915 474.279 12.7334 473.693 12.7334C473.295 12.7334 472.943 12.8242 472.639 13.0059C472.34 13.1816 472.108 13.4072 471.944 13.6826C471.78 13.9521 471.698 14.2305 471.698 14.5176C471.698 14.8164 471.739 15.1123 471.821 15.4053C471.903 15.6982 472.026 15.9648 472.19 16.2051C472.354 16.4453 472.557 16.6387 472.797 16.7852C473.043 16.9316 473.324 17.0049 473.641 17.0049ZM488.301 12.5752C488.301 13.6123 488.219 14.5381 488.055 15.3525C487.896 16.167 487.639 16.8584 487.281 17.4268C486.93 17.9951 486.467 18.4287 485.893 18.7275C485.318 19.0264 484.621 19.1758 483.801 19.1758C482.77 19.1758 481.923 18.915 481.261 18.3936C480.599 17.8662 480.109 17.1104 479.793 16.126C479.477 15.1357 479.318 13.9521 479.318 12.5752C479.318 11.1865 479.462 10 479.749 9.01562C480.042 8.02539 480.517 7.2666 481.173 6.73926C481.829 6.21191 482.705 5.94824 483.801 5.94824C484.826 5.94824 485.67 6.21191 486.332 6.73926C487 7.26074 487.495 8.0166 487.817 9.00684C488.14 9.99121 488.301 11.1807 488.301 12.5752ZM482.017 12.5752C482.017 13.5537 482.069 14.3711 482.175 15.0273C482.286 15.6777 482.471 16.167 482.729 16.4951C482.986 16.8232 483.344 16.9873 483.801 16.9873C484.252 16.9873 484.606 16.8262 484.864 16.5039C485.128 16.1758 485.315 15.6865 485.427 15.0361C485.538 14.3799 485.594 13.5596 485.594 12.5752C485.594 11.5967 485.538 10.7793 485.427 10.123C485.315 9.4668 485.128 8.97461 484.864 8.64648C484.606 8.3125 484.252 8.14551 483.801 8.14551C483.344 8.14551 482.986 8.3125 482.729 8.64648C482.471 8.97461 482.286 9.4668 482.175 10.123C482.069 10.7793 482.017 11.5967 482.017 12.5752ZM498.602 12.5752C498.602 13.6123 498.52 14.5381 498.355 15.3525C498.197 16.167 497.939 16.8584 497.582 17.4268C497.23 17.9951 496.768 18.4287 496.193 18.7275C495.619 19.0264 494.922 19.1758 494.102 19.1758C493.07 19.1758 492.224 18.915 491.562 18.3936C490.899 17.8662 490.41 17.1104 490.094 16.126C489.777 15.1357 489.619 13.9521 489.619 12.5752C489.619 11.1865 489.763 10 490.05 9.01562C490.343 8.02539 490.817 7.2666 491.474 6.73926C492.13 6.21191 493.006 5.94824 494.102 5.94824C495.127 5.94824 495.971 6.21191 496.633 6.73926C497.301 7.26074 497.796 8.0166 498.118 9.00684C498.44 9.99121 498.602 11.1807 498.602 12.5752ZM492.317 12.5752C492.317 13.5537 492.37 14.3711 492.476 15.0273C492.587 15.6777 492.771 16.167 493.029 16.4951C493.287 16.8232 493.645 16.9873 494.102 16.9873C494.553 16.9873 494.907 16.8262 495.165 16.5039C495.429 16.1758 495.616 15.6865 495.728 15.0361C495.839 14.3799 495.895 13.5596 495.895 12.5752C495.895 11.5967 495.839 10.7793 495.728 10.123C495.616 9.4668 495.429 8.97461 495.165 8.64648C494.907 8.3125 494.553 8.14551 494.102 8.14551C493.645 8.14551 493.287 8.3125 493.029 8.64648C492.771 8.97461 492.587 9.4668 492.476 10.123C492.37 10.7793 492.317 11.5967 492.317 12.5752ZM508.902 12.5752C508.902 13.6123 508.82 14.5381 508.656 15.3525C508.498 16.167 508.24 16.8584 507.883 17.4268C507.531 17.9951 507.068 18.4287 506.494 18.7275C505.92 19.0264 505.223 19.1758 504.402 19.1758C503.371 19.1758 502.524 18.915 501.862 18.3936C501.2 17.8662 500.711 17.1104 500.395 16.126C500.078 15.1357 499.92 13.9521 499.92 12.5752C499.92 11.1865 500.063 10 500.351 9.01562C500.644 8.02539 501.118 7.2666 501.774 6.73926C502.431 6.21191 503.307 5.94824 504.402 5.94824C505.428 5.94824 506.271 6.21191 506.934 6.73926C507.602 7.26074 508.097 8.0166 508.419 9.00684C508.741 9.99121 508.902 11.1807 508.902 12.5752ZM502.618 12.5752C502.618 13.5537 502.671 14.3711 502.776 15.0273C502.888 15.6777 503.072 16.167 503.33 16.4951C503.588 16.8232 503.945 16.9873 504.402 16.9873C504.854 16.9873 505.208 16.8262 505.466 16.5039C505.729 16.1758 505.917 15.6865 506.028 15.0361C506.14 14.3799 506.195 13.5596 506.195 12.5752C506.195 11.5967 506.14 10.7793 506.028 10.123C505.917 9.4668 505.729 8.97461 505.466 8.64648C505.208 8.3125 504.854 8.14551 504.402 8.14551C503.945 8.14551 503.588 8.3125 503.33 8.64648C503.072 8.97461 502.888 9.4668 502.776 10.123C502.671 10.7793 502.618 11.5967 502.618 12.5752ZM517.006 19H514.29V11.5645C514.29 11.3594 514.293 11.1074 514.299 10.8086C514.305 10.5039 514.313 10.1934 514.325 9.87695C514.337 9.55469 514.349 9.26465 514.36 9.00684C514.296 9.08301 514.164 9.21484 513.965 9.40234C513.771 9.58398 513.59 9.74805 513.42 9.89453L511.943 11.0811L510.634 9.44629L514.773 6.15039H517.006V19ZM529.073 9.02441C529.073 9.61621 528.95 10.1289 528.704 10.5625C528.458 10.9961 528.124 11.3506 527.702 11.626C527.286 11.9014 526.817 12.1035 526.296 12.2324V12.2852C527.327 12.4141 528.109 12.7305 528.643 13.2344C529.182 13.7383 529.451 14.4121 529.451 15.2559C529.451 16.0059 529.267 16.6768 528.897 17.2686C528.534 17.8604 527.972 18.3262 527.21 18.666C526.448 19.0059 525.467 19.1758 524.266 19.1758C523.557 19.1758 522.895 19.1172 522.279 19C521.67 18.8887 521.096 18.7158 520.557 18.4814V16.1699C521.107 16.4512 521.685 16.665 522.288 16.8115C522.892 16.9521 523.454 17.0225 523.976 17.0225C524.948 17.0225 525.628 16.8555 526.015 16.5215C526.407 16.1816 526.604 15.707 526.604 15.0977C526.604 14.7402 526.513 14.4385 526.331 14.1924C526.149 13.9463 525.833 13.7588 525.382 13.6299C524.937 13.501 524.312 13.4365 523.51 13.4365H522.534V11.3535H523.527C524.318 11.3535 524.919 11.2803 525.329 11.1338C525.745 10.9814 526.026 10.7764 526.173 10.5186C526.325 10.2549 526.401 9.95605 526.401 9.62207C526.401 9.16504 526.261 8.80762 525.979 8.5498C525.698 8.29199 525.229 8.16309 524.573 8.16309C524.163 8.16309 523.788 8.21582 523.448 8.32129C523.114 8.4209 522.812 8.54395 522.543 8.69043C522.273 8.83105 522.036 8.96875 521.831 9.10352L520.574 7.23145C521.078 6.86816 521.667 6.56641 522.341 6.32617C523.021 6.08594 523.829 5.96582 524.767 5.96582C526.091 5.96582 527.14 6.23242 527.913 6.76562C528.687 7.29883 529.073 8.05176 529.073 9.02441Z" fill="#424242"/>
</svg>
